<?xml version="1.0" standalone="no"?>
<!DOCTYPE svg PUBLIC "-//W3C//DTD SVG 20010904//EN"
 "http://www.w3.org/TR/2001/REC-SVG-20010904/DTD/svg10.dtd">
<svg version="1.0" xmlns="http://www.w3.org/2000/svg"
 width="30.000000pt" height="34.000000pt" viewBox="0 0 30.000000 34.000000"
 preserveAspectRatio="xMidYMid meet">

<g transform="translate(0.000000,34.000000) scale(0.100000,-0.100000)"
fill="#000000" stroke="none">
<path d="M157 301 c-24 -27 -39 -36 -48 -30 -22 14 -75 10 -89 -6 -9 -11 -6
-21 15 -50 15 -19 35 -35 44 -35 27 0 41 -21 41 -62 0 -41 -5 -44 -78 -39 -23
2 -32 -2 -32 -13 0 -14 19 -16 135 -16 118 0 135 2 135 16 0 14 -8 16 -47 12
l-48 -5 2 66 c1 36 2 74 3 84 0 10 8 17 21 17 21 0 79 56 79 76 0 15 -23 24
-65 24 -25 0 -40 -9 -68 -39z m96 13 c3 -4 -1 -17 -10 -31 -12 -17 -23 -23
-39 -20 -31 5 -44 -28 -44 -108 0 -37 -4 -65 -10 -65 -5 0 -10 17 -10 38 -1
41 -19 72 -43 72 -19 0 -58 40 -51 52 9 15 44 8 65 -13 17 -17 23 -19 30 -8 5
8 9 19 9 26 0 30 84 76 103 57z"/>
<path d="M10 20 c0 -19 7 -20 135 -20 128 0 135 1 135 20 0 19 -7 20 -135 20
-128 0 -135 -1 -135 -20z"/>
</g>
</svg>
